<svg xmlns="http://www.w3.org/2000/svg" viewBox="0 0 64 64" role="img" aria-label="ProofGuard">
  <defs>
    <linearGradient id="pg-grad" x1="0" y1="0" x2="1" y2="1">
      <stop offset="0" stop-color="#2563eb"/>
      <stop offset="1" stop-color="#4f46e5"/>
    </linearGradient>
    <filter id="pg-shadow" x="-20%" y="-20%" width="140%" height="140%">
      <feDropShadow dx="0" dy="2" stdDeviation="2" flood-color="#0b1b4a" flood-opacity="0.25"/>
    </filter>
  </defs>
  <!-- Rounded square background -->
  <rect x="6" y="6" width="52" height="52" rx="14" fill="url(#pg-grad)"/>
  <!-- Shield with check -->
  <g transform="translate(0,1)" filter="url(#pg-shadow)">
    <path d="M32 14c6.8 0 13 2.6 13 5.8v7.8c0 9.1-9 14-11.5 15.2a2 2 0 0 1-1.9 0C29.1 41.6 19 36.7 19 27.6v-7.8C19 16.6 25.2 14 32 14z" fill="#ffffff" fill-opacity="0.96"/>
    <path d="M27.2 29.8l4.6 4.6 9.6-9.6" fill="none" stroke="#22c55e" stroke-width="3.2" stroke-linecap="round" stroke-linejoin="round"/>
  </g>
  <!-- Subtle border -->
  <rect x="6" y="6" width="52" height="52" rx="14" fill="none" stroke="#ffffff" stroke-opacity="0.22"/>
</svg>
